<?xml version="1.0" standalone="no"?>
<!DOCTYPE svg PUBLIC "-//W3C//DTD SVG 20010904//EN"
 "http://www.w3.org/TR/2001/REC-SVG-20010904/DTD/svg10.dtd">
<svg version="1.0" xmlns="http://www.w3.org/2000/svg"
 width="17.000000pt" height="19.000000pt" viewBox="0 0 17.000000 19.000000"
 preserveAspectRatio="xMidYMid meet">

<g transform="translate(0.000000,19.000000) scale(0.100000,-0.100000)"
fill="#000000" stroke="none">
<path d="M80 156 c0 -14 5 -28 11 -32 17 -10 32 12 24 35 -9 29 -35 27 -35 -3z"/>
<path d="M137 153 c-12 -12 -7 -41 7 -46 9 -4 17 2 21 13 9 30 -10 52 -28 33z"/>
<path d="M20 136 c0 -7 7 -19 15 -26 19 -16 41 1 32 24 -8 20 -47 21 -47 2z"/>
<path d="M76 102 c-12 -20 -17 -80 -6 -87 13 -8 100 31 100 45 0 12 -59 50
-77 50 -6 0 -14 -3 -17 -8z"/>
<path d="M10 81 c0 -12 2 -21 4 -21 2 0 12 -3 21 -6 13 -5 16 -2 13 17 -4 31
-38 39 -38 10z"/>
</g>
</svg>
